<svg width="63" height="63" viewBox="0 0 63 63" fill="none" xmlns="http://www.w3.org/2000/svg">
<path id="Union" fill-rule="evenodd" clip-rule="evenodd" d="M62.9997 28.756C62.9879 22.4981 60.5764 16.4137 56.13 11.4233C51.6836 6.43291 45.4442 2.80809 38.3559 1.09725C31.2675 -0.613597 23.7158 -0.317366 16.8433 1.94111C9.97085 4.19958 4.15153 8.29741 0.265781 13.6146L3.78789 16.6056C4.77111 15.1236 5.93207 13.7319 7.25226 12.4526L7.21184 12.4182L8.44746 11.3689C12.5076 7.90094 17.6887 5.53463 23.3342 4.56984C28.9797 3.60504 34.8354 4.08521 40.1591 5.94949C45.4829 7.81377 50.0352 10.9782 53.2389 15.0419C56.4427 19.1055 58.1538 23.8853 58.1554 28.7756V28.7757C58.1554 29.266 58.1554 29.7563 58.1034 30.2466V30.4526V30.6046V30.9086C58.1034 31.0067 58.1034 31.0851 58.0745 31.1734L58.0226 31.5705C58.0226 31.649 58.0226 31.7323 57.9879 31.8206C57.9646 31.8801 57.957 31.9641 57.9492 32.0501C57.9454 32.0917 57.9416 32.1337 57.936 32.1736L57.9013 32.3698C57.9013 32.4482 57.8817 32.5338 57.8621 32.6199L57.8621 32.6199C57.8535 32.6576 57.8448 32.6953 57.8378 32.7326C57.8266 32.7922 57.8194 32.8263 57.8137 32.8535L57.8137 32.8538C57.8077 32.8824 57.8033 32.9034 57.7974 32.9385C57.7939 32.9592 57.7925 32.9785 57.7912 32.9971C57.7881 33.0405 57.7852 33.0803 57.757 33.1249C57.7298 33.1676 57.7235 33.2281 57.7171 33.2899C57.7139 33.3202 57.7107 33.3508 57.705 33.3798C57.6963 33.424 57.6862 33.4644 57.6761 33.5049C57.666 33.5453 57.6559 33.5858 57.6473 33.6299L57.578 33.9192C57.4105 34.5909 57.2027 35.2725 57.0006 35.9247C56.989 35.9557 56.9781 35.9868 56.9672 36.0179L56.9671 36.018C56.9453 36.0801 56.9236 36.1421 56.8966 36.2041C56.8711 36.2631 56.8571 36.3063 56.8429 36.35C56.8347 36.3754 56.8264 36.4009 56.8158 36.4297C56.6484 36.8612 56.4636 37.2976 56.2731 37.7192L56.1864 37.8958L56.019 38.1311C55.9786 38.2096 55.9324 38.3028 55.892 38.391L55.7765 38.6117V38.646L55.6206 38.95C55.5802 39.0284 55.5398 39.102 55.4936 39.1755C54.7543 40.529 53.8711 41.8223 52.8549 43.0393L52.6932 43.2306L52.341 43.6326L52.3063 43.6722C52.2637 43.7211 52.2175 43.774 52.1678 43.8239L51.7867 44.2407L51.5557 44.476L51.3421 44.6967L51.1054 44.932C51.0746 44.9614 51.0445 44.9908 51.0143 45.0202C50.954 45.0791 50.8937 45.1379 50.8282 45.1968L54.2464 48.0996C59.9036 42.8048 63.0257 35.9054 62.9997 28.756ZM55.8344 50.4875C57.1528 49.2069 58.3136 47.8153 59.2988 46.3344L62.717 49.3842C60.2346 52.7829 56.9458 55.7051 53.06 57.9646C49.1742 60.2241 44.7767 61.7714 40.1477 62.5078C35.5188 63.2443 30.76 63.1537 26.1746 62.2419C21.5892 61.33 17.2777 59.617 13.515 57.2118C9.75236 54.8067 6.62097 51.7623 4.32046 48.2726C2.01994 44.7829 0.60076 40.9245 0.153351 36.9433C-0.294057 32.9621 0.240127 28.9454 1.72186 25.1491C3.20359 21.3529 5.60036 17.8605 8.75943 14.8944L12.1776 17.7972L11.9005 18.0619L11.9003 18.0621C11.8195 18.1356 11.7387 18.2091 11.6637 18.2924C11.6191 18.3419 11.5725 18.388 11.5263 18.4336L11.5262 18.4337L11.5262 18.4337C11.4946 18.4649 11.4632 18.4959 11.4328 18.5278C11.4097 18.5519 11.3866 18.5764 11.3634 18.6012L11.3634 18.6012C11.311 18.657 11.2578 18.7137 11.2018 18.768L10.8207 19.1799C10.7572 19.2436 10.6995 19.3123 10.6475 19.376L10.3011 19.7732L10.1336 19.9644C9.11868 21.1822 8.23552 22.4754 7.49493 23.8282L7.37368 24.0538C7.31596 24.1567 7.26401 24.2596 7.21206 24.3626L7.21201 24.3627V24.397C7.19971 24.4194 7.18474 24.4418 7.16986 24.464C7.13584 24.5149 7.1023 24.565 7.1023 24.6127L6.9695 24.8775C6.94063 24.9462 6.90599 25.0197 6.87712 25.0786C6.86871 25.0957 6.85835 25.1132 6.84788 25.131L6.84785 25.131L6.84783 25.1311C6.82236 25.1742 6.79628 25.2183 6.79628 25.26C6.59997 25.6817 6.4152 26.1181 6.25353 26.5446C6.23256 26.5921 6.21793 26.6325 6.20197 26.6765C6.19157 26.7051 6.1806 26.7354 6.16693 26.7702C6.15674 26.7962 6.14455 26.8221 6.13242 26.848C6.10331 26.91 6.07454 26.9712 6.07454 27.0301C5.86668 27.6871 5.65882 28.3638 5.49715 29.0355C5.46828 29.1336 5.43941 29.2464 5.42209 29.3297C5.41403 29.3685 5.40473 29.4051 5.39534 29.4421C5.38453 29.4847 5.37361 29.5277 5.36434 29.5749C5.35861 29.6041 5.3554 29.636 5.35222 29.6678C5.34578 29.7319 5.33941 29.7954 5.31238 29.8348C5.29217 29.8642 5.29217 29.8924 5.29217 29.9218C5.29217 29.9512 5.29217 29.9819 5.27196 30.0162C5.24767 30.0575 5.24632 30.081 5.2441 30.1198C5.24262 30.1456 5.24076 30.1781 5.23154 30.227C5.22433 30.2653 5.21543 30.3036 5.20659 30.3416C5.18714 30.4252 5.16803 30.5074 5.16803 30.585L5.13339 30.786C5.1275 30.826 5.11961 30.8666 5.11176 30.9069L5.11176 30.907C5.09651 30.9853 5.08142 31.0629 5.08142 31.1341C5.05833 31.2224 5.04678 31.3058 5.04678 31.3842L4.99481 31.7814V32.0462L4.96017 32.3502C4.96303 32.3943 4.96303 32.4384 4.96017 32.4825V32.6885C4.90821 33.1788 4.90821 33.6691 4.90821 34.1594V34.1595C4.90238 39.0543 6.60975 43.8402 9.81347 47.9093C13.0172 51.9783 17.5727 55.1471 22.9015 57.013C28.2302 58.8789 34.0918 59.3577 39.7417 58.3888C45.3916 57.4199 50.5749 55.0468 54.6334 51.5711L55.8691 50.5169L55.8344 50.4875ZM24.1947 54.2418C21.0916 53.1476 18.2748 51.5416 15.9076 49.5167L15.8267 49.8109C13.448 47.7902 11.5621 45.3909 10.277 42.7503C8.99187 40.1097 8.33286 37.2798 8.33769 34.4226C8.34251 31.5653 9.01108 28.737 10.3051 26.0995C11.5991 23.4621 13.4931 21.0674 15.8787 19.0525C17.7299 17.4936 19.8478 16.181 22.1607 15.1593L25.7868 18.2386C23.3713 19.1187 21.1718 20.3761 19.3026 21.9454C15.4915 25.1528 13.2918 29.4893 13.1655 34.0445C13.0392 38.5998 14.9961 43.0194 18.6253 46.3755C22.2545 49.7316 27.2737 51.7631 32.6292 52.0434C37.9846 52.3237 43.2596 50.8312 47.3467 47.879L50.7649 50.7817L50.6263 50.8847L50.1702 51.2132L49.9277 51.3849L49.6852 51.5467L49.6274 51.581L49.4831 51.6791L49.2463 51.836L49.0269 51.9732L48.8999 52.0517L48.7209 52.1596H48.6863L48.4495 52.3018C48.1608 52.4734 47.8952 52.6205 47.6354 52.7627L47.058 53.0667L46.7058 53.2432L46.5441 53.3217C46.0302 53.5668 45.499 53.8022 44.9621 54.0179L44.7022 54.1258H44.6503L44.477 54.1895L44.1537 54.3121L43.7957 54.4445L43.432 54.5671L43.2126 54.6406C43.1202 54.675 43.022 54.7044 42.9181 54.7338L42.716 54.8025H42.6698L42.5024 54.8564L41.8615 55.0378L41.6536 55.0918L41.3649 55.1702L41.1743 55.2192H41.1397L40.9896 55.2585L40.7933 55.3026L40.545 55.3614L40.2332 55.4301H40.1177L39.6673 55.5184L38.986 55.6409L38.7262 55.6801H38.6973L38.4952 55.7096H38.4664L38.2123 55.7439C37.9121 55.788 37.6003 55.8272 37.2827 55.8616H37.0287H36.9016H36.7053H36.4108L36.0644 55.891H35.9778H35.8046H35.4293H34.9616H34.6325H33.9858C30.6258 55.8965 27.2979 55.336 24.1947 54.2418ZM40.8387 48.0749L37.2126 44.9956C39.6776 44.0569 41.905 42.7215 43.7718 41.0632C47.583 37.8559 49.7827 33.5194 49.909 28.9641C50.0353 24.4089 48.0784 19.9892 44.4492 16.6331C40.82 13.2771 35.8008 11.2456 30.4453 10.9652C25.0899 10.6849 19.8149 12.1775 15.7278 15.1296L12.3096 12.222L12.4482 12.119L12.9043 11.7905L13.1699 11.6091L13.4124 11.4424L13.4702 11.408L13.6145 11.31L13.8513 11.158L14.0707 11.0207L14.1919 10.9422L14.3767 10.8294L14.4229 10.8L14.6423 10.6725C14.931 10.5058 15.1966 10.3538 15.4564 10.2165L15.6931 10.089L16.0627 9.89781L16.3976 9.73111L16.5535 9.65264C17.0673 9.40748 17.5985 9.17213 18.1355 8.95638L18.4011 8.84852H18.4473L18.6205 8.78478L18.9439 8.66219L19.3019 8.5347L19.6656 8.40721L19.885 8.33365L20.1853 8.24049L20.3816 8.17674H20.4336L20.5952 8.12772L21.2361 7.94139L21.444 7.88747L21.7327 7.8139L21.9232 7.76488H21.9579L22.108 7.72565L22.3043 7.68153L22.5526 7.6227L22.8644 7.55404H22.9799L23.4302 7.46088L24.1173 7.3383L24.3714 7.29906H24.4118L24.6023 7.26964H24.6312L24.8853 7.23041C25.1913 7.18628 25.4973 7.15197 25.8149 7.11764L26.0632 7.08822H26.0978H26.196H26.3923L26.6867 7.06371H27.0332H27.1198H27.293H27.6683H28.136H28.4536H29.0945C34.8243 7.06678 40.3869 8.7035 44.8907 11.7115C49.3945 14.7195 52.5786 18.9245 53.9325 23.6525C55.2865 28.3806 54.7319 33.3577 52.3576 37.7861C49.9833 42.2145 45.927 45.8377 40.8387 48.0749Z" fill="#FF0000"/>
</svg>
